<?xml version="1.0" standalone="no"?>
<!DOCTYPE svg PUBLIC "-//W3C//DTD SVG 20010904//EN"
 "http://www.w3.org/TR/2001/REC-SVG-20010904/DTD/svg10.dtd">
<svg version="1.0" xmlns="http://www.w3.org/2000/svg"
 width="4680.000000pt" height="4680.000000pt" viewBox="0 0 4680.000000 4680.000000"
 preserveAspectRatio="xMidYMid meet">
<metadata>
Created by potrace 1.16, written by Peter Selinger 2001-2019
</metadata>
<g transform="translate(0.000000,4680.000000) scale(0.100000,-0.100000)"
fill="#000000" stroke="none">
<path d="M2971 43866 c-53 -29 -50 71 -51 -1822 0 -1394 3 -1763 13 -1775 38
-45 13 -44 728 -49 634 -5 679 -6 696 -23 17 -17 18 -62 23 -700 5 -626 6
-685 23 -714 9 -18 26 -37 37 -43 13 -7 570 -10 1779 -10 1399 1 1764 -2 1780
-12 39 -24 43 -54 37 -304 -4 -132 -6 -264 -6 -294 1 -30 4 -1038 8 -2240 7
-2046 8 -2187 24 -2217 28 -50 54 -54 384 -52 297 1 298 1 316 -21 17 -21 18
-102 18 -1781 0 -1290 3 -1765 11 -1783 7 -14 19 -29 28 -33 9 -4 156 -10 328
-13 282 -5 314 -7 330 -23 17 -17 18 -62 23 -700 5 -626 6 -685 23 -714 28
-53 42 -56 226 -49 91 4 231 6 311 5 152 -2 355 -2 600 -1 116 1 913 -6 982
-8 10 0 22 -9 28 -20 7 -14 11 -240 13 -700 l2 -679 23 -23 23 -23 1421 -2
c1255 -3 1424 -5 1445 -18 l23 -15 0 -3610 0 -3610 -23 -15 c-21 -13 -190 -15
-1445 -18 l-1421 -2 -23 -23 -23 -23 -2 -672 c-2 -369 -3 -677 -3 -683 0 -5
-6 -18 -13 -28 -12 -16 -72 -17 -1050 -16 -713 0 -1043 -3 -1057 -10 -11 -6
-28 -25 -37 -43 -17 -29 -18 -88 -23 -714 -5 -638 -6 -683 -23 -700 -16 -16
-48 -18 -330 -23 -172 -3 -319 -9 -328 -13 -9 -4 -21 -19 -28 -33 -8 -18 -11
-493 -11 -1783 0 -1679 -1 -1760 -18 -1781 -18 -22 -19 -22 -319 -21 -348 2
-359 0 -386 -68 -16 -38 -17 -212 -17 -2156 0 -1871 -2 -2121 -15 -2172 -13
-47 -15 -117 -14 -376 2 -304 1 -319 -18 -345 -11 -15 -35 -32 -54 -39 -26 -9
-450 -12 -1761 -12 -1266 -1 -1734 -4 -1752 -12 -14 -7 -29 -19 -33 -28 -4 -9
-10 -318 -13 -688 -5 -628 -6 -673 -23 -690 -17 -17 -62 -18 -696 -23 -715 -5
-690 -4 -729 -49 -9 -12 -12 -381 -12 -1773 0 -1913 -3 -1800 55 -1826 40 -18
11604 -17 11629 1 9 7 21 30 26 52 6 24 10 2024 10 5060 0 2761 0 5032 0 5048
0 15 9 36 20 47 20 20 33 20 699 20 l680 0 20 26 21 27 0 1772 c0 1687 1 1774
18 1795 l18 22 669 -1 c482 -1 679 1 703 10 69 24 66 -1 72 739 3 366 8 672
13 680 22 45 17 45 677 48 678 4 713 1 751 -46 20 -25 20 -35 15 -222 -3 -107
-4 -208 -3 -225 2 -39 -1 -534 -5 -735 -3 -180 5 -214 59 -237 28 -11 200 -13
1066 -13 l1032 1 17 -21 c17 -21 18 -118 18 -1795 l0 -1772 21 -27 20 -26 320
0 c306 0 320 -1 339 -20 11 -11 20 -32 20 -47 0 -16 0 -2287 0 -5049 0 -3665
3 -5029 11 -5053 6 -18 24 -39 43 -49 29 -16 367 -17 5806 -20 4337 -2 5782 1
5803 9 61 25 57 -95 57 1827 0 1392 -3 1761 -12 1773 -39 45 -14 44 -729 49
-634 5 -679 6 -696 23 -17 17 -18 62 -23 700 -5 626 -6 685 -23 714 -9 18 -26
37 -37 43 -13 7 -571 10 -1782 10 -1715 -1 -1763 0 -1788 18 l-25 19 -2 2492
c-2 2316 -4 2495 -20 2528 -29 61 -46 64 -386 62 l-301 -1 -19 23 c-17 21 -18
36 -13 179 3 85 5 169 4 185 -1 17 -1 65 -1 108 0 42 0 95 0 117 0 22 0 112 0
200 0 88 0 178 0 200 1 58 0 193 0 240 0 22 0 148 1 280 2 357 2 551 1 640 -1
44 -2 98 -2 120 0 22 0 76 0 120 0 44 0 98 0 120 0 22 0 112 0 200 0 88 0 178
0 200 0 22 0 75 0 118 0 42 0 91 1 107 4 64 -14 421 -22 437 -4 9 -15 20 -24
25 -9 4 -157 10 -329 13 -282 5 -314 7 -330 23 -17 17 -18 61 -23 660 l-5 642
-30 53 c-35 64 -74 99 -118 107 -18 4 -192 4 -387 1 -195 -3 -413 -5 -485 -5
-131 1 -1085 8 -1117 9 -10 0 -22 9 -28 20 -7 14 -11 240 -13 700 l-2 679 -23
23 -23 23 -1421 2 c-1255 3 -1424 5 -1445 18 l-23 15 0 3610 0 3610 23 15 c21
13 190 15 1445 18 l1421 2 23 23 23 23 2 679 c2 460 6 686 13 700 6 11 18 20
28 20 9 0 379 2 822 4 443 2 864 5 935 6 72 1 169 -1 216 -5 98 -9 119 -1 146
48 17 29 18 88 23 714 5 638 6 683 23 700 16 16 48 18 330 23 172 3 319 9 329
13 9 5 21 20 26 35 12 32 25 145 21 187 -1 17 -2 65 -2 108 0 42 0 95 0 117 0
22 0 148 1 280 1 260 2 428 1 800 0 132 0 276 0 320 1 75 0 97 -2 200 -2 102
-1 1238 1 1265 1 17 -1 82 -4 145 -5 104 -4 118 13 139 l19 23 301 -1 c341 -2
357 1 387 62 15 34 17 202 16 2511 0 1758 3 2481 11 2498 6 13 19 30 30 36 16
10 401 13 1780 12 1209 0 1766 3 1779 10 11 6 28 25 37 43 17 29 18 88 23 714
5 638 6 683 23 700 17 17 62 18 696 23 715 5 690 4 728 49 10 12 13 381 13
1773 0 1922 4 1802 -57 1827 -21 8 -1466 11 -5803 9 -5439 -3 -5777 -4 -5806
-20 -19 -10 -37 -31 -43 -49 -8 -24 -11 -1388 -11 -5053 0 -2762 0 -5033 0
-5048 0 -16 -9 -37 -20 -48 -19 -19 -33 -20 -339 -20 l-320 0 -20 -26 -21 -27
0 -1772 c0 -1677 -1 -1774 -18 -1795 l-17 -21 -1030 1 c-747 0 -1039 -3 -1063
-11 -40 -14 -66 -60 -62 -111 2 -21 3 -110 2 -198 -1 -189 -1 -224 1 -637 1
-309 -4 -410 -24 -464 -21 -55 -8 -54 -709 -54 -681 0 -685 0 -707 44 -4 9
-10 315 -13 681 -6 740 -3 715 -72 739 -24 9 -221 11 -703 10 l-669 -1 -18 22
c-17 21 -18 108 -18 1795 l0 1772 -21 27 -20 26 -680 0 c-666 0 -679 0 -699
20 -11 11 -20 32 -20 48 0 15 0 2286 0 5047 0 3036 -4 5036 -10 5060 -5 22
-17 45 -26 52 -27 20 -11598 18 -11633 -1z"/>
<path d="M38825 29256 c-37 -17 -70 -52 -85 -91 -8 -20 -11 -118 -9 -305 3
-297 1 -307 -50 -330 -17 -8 -109 -11 -296 -9 -245 2 -274 1 -309 -16 -65 -31
-68 -47 -65 -369 1 -173 -2 -291 -9 -306 -20 -52 -21 -52 -314 -46 -150 3
-285 5 -300 6 -42 1 -84 -26 -97 -61 -16 -46 -16 -2773 0 -2818 7 -19 22 -36
36 -42 13 -5 163 -9 332 -9 334 0 324 2 346 -55 4 -11 7 -145 6 -298 -3 -323
0 -339 63 -368 37 -17 69 -19 329 -19 274 0 288 -1 307 -20 24 -24 23 -6 20
-336 -2 -299 2 -318 66 -349 52 -25 229 -33 450 -20 84 5 129 3 189 -9 98 -20
315 -21 405 -1 86 19 230 19 324 -1 69 -14 83 -14 152 0 96 20 152 20 250 0
61 -13 104 -15 194 -9 63 4 156 8 205 10 50 2 140 6 201 10 85 5 129 3 189 -9
98 -20 315 -21 405 -1 36 8 108 14 160 14 52 0 124 -6 160 -14 77 -17 253 -20
282 -4 11 6 28 29 39 52 17 38 19 69 19 342 0 256 2 304 16 323 15 22 16 22
328 22 235 0 316 3 327 13 44 36 44 37 49 368 5 288 7 320 23 336 16 16 48 18
336 23 331 5 332 5 369 49 9 12 12 310 12 1417 0 1365 -1 1402 -19 1425 -19
23 -24 24 -233 31 -117 4 -220 8 -228 8 -8 0 -49 -2 -92 -6 l-76 -7 -44 41
-43 41 -5 310 c-5 304 -5 311 -27 333 -22 22 -25 22 -290 19 -295 -3 -350 4
-383 47 -19 23 -20 41 -20 311 0 259 -2 290 -19 328 -11 23 -28 46 -39 52 -15
8 -533 11 -1764 11 -1430 -1 -1748 -3 -1773 -14z"/>
<path d="M37369 19753 c-31 -3 -53 -11 -65 -25 -18 -20 -19 -246 -22 -8342 -2
-4576 0 -8345 3 -8374 4 -33 14 -61 26 -73 19 -19 79 -19 3254 -19 3523 0
3276 -4 3303 55 18 40 17 16724 -1 16749 -7 9 -30 21 -52 26 -37 9 -6339 11
-6446 3z"/>
</g>
</svg>
